<mxfile host="65bd71144e">
    <diagram name="Page-1" id="c4acf3e9-155e-7222-9cf6-157b1a14988f">
        <mxGraphModel dx="817" dy="349" grid="1" gridSize="10" guides="1" tooltips="1" connect="1" arrows="1" fold="1" page="1" pageScale="1" pageWidth="850" pageHeight="1100" background="none" math="0" shadow="0">
            <root>
                <mxCell id="0"/>
                <mxCell id="1" parent="0"/>
                <mxCell id="86" value="VScode Debugger" style="rounded=0;whiteSpace=wrap;html=1;fillColor=#51CFE4;fontColor=#000000;strokeColor=#001DBC;" parent="1" vertex="1">
                    <mxGeometry x="74" y="140" width="120" height="60" as="geometry"/>
                </mxCell>
                <mxCell id="89" value="Node.js" style="rounded=0;whiteSpace=wrap;html=1;fillColor=#4BB04F;fontColor=#000000;strokeColor=#001DBC;" parent="1" vertex="1">
                    <mxGeometry x="650" y="38" width="120" height="60" as="geometry"/>
                </mxCell>
                <mxCell id="90" value="Debug Adapter&lt;br&gt;Protocol" style="shape=note;whiteSpace=wrap;html=1;backgroundOutline=1;darkOpacity=0.05;fontColor=#000000;fillColor=#FFFFAA;size=14;" parent="1" vertex="1">
                    <mxGeometry x="180" y="38" width="120" height="51" as="geometry"/>
                </mxCell>
                <mxCell id="93" value="Node.js Debug Apapter" style="rounded=0;whiteSpace=wrap;html=1;fillColor=#FEB749;fontColor=#000000;strokeColor=#001DBC;" parent="1" vertex="1">
                    <mxGeometry x="355" y="39" width="140" height="60" as="geometry"/>
                </mxCell>
                <mxCell id="94" value="" style="endArrow=classic;startArrow=classic;html=1;entryX=0;entryY=0.5;entryDx=0;entryDy=0;exitX=1;exitY=0.5;exitDx=0;exitDy=0;" parent="1" source="86" target="93" edge="1">
                    <mxGeometry width="50" height="50" relative="1" as="geometry">
                        <mxPoint x="214" y="160" as="sourcePoint"/>
                        <mxPoint x="264" y="110" as="targetPoint"/>
                    </mxGeometry>
                </mxCell>
                <mxCell id="98" value="调试适配器协议" style="edgeLabel;html=1;align=center;verticalAlign=middle;resizable=0;points=[];" parent="94" vertex="1" connectable="0">
                    <mxGeometry x="0.1613" y="-1" relative="1" as="geometry">
                        <mxPoint x="-16" as="offset"/>
                    </mxGeometry>
                </mxCell>
                <mxCell id="95" value="" style="endArrow=classic;startArrow=classic;html=1;entryX=0;entryY=0.5;entryDx=0;entryDy=0;exitX=1;exitY=0.5;exitDx=0;exitDy=0;" parent="1" source="93" target="89" edge="1">
                    <mxGeometry width="50" height="50" relative="1" as="geometry">
                        <mxPoint x="559" y="149.5" as="sourcePoint"/>
                        <mxPoint x="784" y="149.5" as="targetPoint"/>
                    </mxGeometry>
                </mxCell>
                <mxCell id="99" value="调试协议" style="edgeLabel;html=1;align=center;verticalAlign=middle;resizable=0;points=[];" parent="95" vertex="1" connectable="0">
                    <mxGeometry x="-0.2131" y="1" relative="1" as="geometry">
                        <mxPoint x="24" y="1" as="offset"/>
                    </mxGeometry>
                </mxCell>
                <mxCell id="100" value="Python" style="rounded=0;whiteSpace=wrap;html=1;fillColor=#4BB04F;fontColor=#000000;strokeColor=#001DBC;" vertex="1" parent="1">
                    <mxGeometry x="650" y="140" width="120" height="60" as="geometry"/>
                </mxCell>
                <mxCell id="101" value="Python Debug Apapter" style="rounded=0;whiteSpace=wrap;html=1;fillColor=#FEB749;fontColor=#000000;strokeColor=#001DBC;" vertex="1" parent="1">
                    <mxGeometry x="355" y="140" width="140" height="60" as="geometry"/>
                </mxCell>
                <mxCell id="103" value="" style="endArrow=classic;startArrow=classic;html=1;entryX=0;entryY=0.5;entryDx=0;entryDy=0;exitX=1;exitY=0.5;exitDx=0;exitDy=0;" edge="1" parent="1" source="101" target="100">
                    <mxGeometry width="50" height="50" relative="1" as="geometry">
                        <mxPoint x="559" y="229.5" as="sourcePoint"/>
                        <mxPoint x="784" y="229.5" as="targetPoint"/>
                    </mxGeometry>
                </mxCell>
                <mxCell id="104" value="调试协议" style="edgeLabel;html=1;align=center;verticalAlign=middle;resizable=0;points=[];" vertex="1" connectable="0" parent="103">
                    <mxGeometry x="-0.2131" y="1" relative="1" as="geometry">
                        <mxPoint x="24" y="1" as="offset"/>
                    </mxGeometry>
                </mxCell>
                <mxCell id="105" value="Rust" style="rounded=0;whiteSpace=wrap;html=1;fillColor=#4BB04F;fontColor=#000000;strokeColor=#001DBC;" vertex="1" parent="1">
                    <mxGeometry x="650" y="240" width="120" height="60" as="geometry"/>
                </mxCell>
                <mxCell id="106" value="Rust Debug Apapter" style="rounded=0;whiteSpace=wrap;html=1;fillColor=#FEB749;fontColor=#000000;strokeColor=#001DBC;" vertex="1" parent="1">
                    <mxGeometry x="355" y="240" width="140" height="60" as="geometry"/>
                </mxCell>
                <mxCell id="108" value="" style="endArrow=classic;startArrow=classic;html=1;entryX=0;entryY=0.5;entryDx=0;entryDy=0;exitX=1;exitY=0.5;exitDx=0;exitDy=0;" edge="1" parent="1" source="106" target="105">
                    <mxGeometry width="50" height="50" relative="1" as="geometry">
                        <mxPoint x="559" y="319.5" as="sourcePoint"/>
                        <mxPoint x="784" y="319.5" as="targetPoint"/>
                    </mxGeometry>
                </mxCell>
                <mxCell id="109" value="调试协议" style="edgeLabel;html=1;align=center;verticalAlign=middle;resizable=0;points=[];" vertex="1" connectable="0" parent="108">
                    <mxGeometry x="-0.2131" y="1" relative="1" as="geometry">
                        <mxPoint x="24" y="1" as="offset"/>
                    </mxGeometry>
                </mxCell>
                <mxCell id="110" value="" style="endArrow=classic;startArrow=classic;html=1;entryX=0;entryY=0.5;entryDx=0;entryDy=0;exitX=1;exitY=0.5;exitDx=0;exitDy=0;" edge="1" parent="1" source="86" target="101">
                    <mxGeometry width="50" height="50" relative="1" as="geometry">
                        <mxPoint x="204" y="160" as="sourcePoint"/>
                        <mxPoint x="365" y="90" as="targetPoint"/>
                        <Array as="points">
                            <mxPoint x="320" y="170"/>
                        </Array>
                    </mxGeometry>
                </mxCell>
                <mxCell id="111" value="调试适配器协议" style="edgeLabel;html=1;align=center;verticalAlign=middle;resizable=0;points=[];" vertex="1" connectable="0" parent="110">
                    <mxGeometry x="0.1613" y="-1" relative="1" as="geometry">
                        <mxPoint x="-16" as="offset"/>
                    </mxGeometry>
                </mxCell>
                <mxCell id="112" value="" style="endArrow=classic;startArrow=classic;html=1;entryX=0;entryY=0.5;entryDx=0;entryDy=0;exitX=1;exitY=0.5;exitDx=0;exitDy=0;" edge="1" parent="1" source="86" target="106">
                    <mxGeometry width="50" height="50" relative="1" as="geometry">
                        <mxPoint x="194" y="240" as="sourcePoint"/>
                        <mxPoint x="355" y="240" as="targetPoint"/>
                        <Array as="points"/>
                    </mxGeometry>
                </mxCell>
                <mxCell id="113" value="调试适配器协议" style="edgeLabel;html=1;align=center;verticalAlign=middle;resizable=0;points=[];" vertex="1" connectable="0" parent="112">
                    <mxGeometry x="0.1613" y="-1" relative="1" as="geometry">
                        <mxPoint x="-16" as="offset"/>
                    </mxGeometry>
                </mxCell>
            </root>
        </mxGraphModel>
    </diagram>
</mxfile>